<?xml version="1.0" encoding="utf-8"?>
<svg viewBox="238.882 239.306 22.6 21.67" width="112" xmlns="http://www.w3.org/2000/svg">
  <defs/>
  <path d="m258.4 236.207-8-3c-.3-.1-.5-.1-.8 0l-8 3c-.3.1-.6.5-.6.9s.3.8.6.9l8 3c.2.1.3.1.4.1.1 0 .2 0 .4-.1l8-3c.3-.1.6-.5.6-.9s-.3-.8-.6-.9z" fill="#7000ff" transform="translate(0 6.88)"/>
  <path d="M250 253.107c-.1 0-.2 0-.4-.1l-8-3c-.3-.1-.6-.5-.6-.9v-8c0-.6.4-1 1-1s1 .4 1 1v7.3l7 2.6 7-2.6v-7.3c0-.6.4-1 1-1s1 .4 1 1v8c0 .4-.3.8-.6.9l-8 3c-.2.1-.3.1-.4.1z" fill="#7000ff" transform="translate(0 6.88)"/>
</svg>