<svg xmlns="http://www.w3.org/2000/svg" viewBox="241 240.012 120.486 19.975" width="112"><path d="m258.4 236.207-8-3c-.3-.1-.5-.1-.8 0l-8 3c-.3.1-.6.5-.6.9s.3.8.6.9l8 3c.2.1.3.1.4.1.1 0 .2 0 .4-.1l8-3c.3-.1.6-.5.6-.9s-.3-.8-.6-.9z" fill="#7000ff" transform="translate(0 6.88)"></path><path d="M250 253.107c-.1 0-.2 0-.4-.1l-8-3c-.3-.1-.6-.5-.6-.9v-8c0-.6.4-1 1-1s1 .4 1 1v7.3l7 2.6 7-2.6v-7.3c0-.6.4-1 1-1s1 .4 1 1v8c0 .4-.3.8-.6.9l-8 3c-.2.1-.3.1-.4.1z" fill="#7000ff" transform="translate(0 6.88)"></path><path class="flex flex-col justify-end truncate invisible w-0" d="M280.126 257.167h-11.582q-.274 0-.508-.098-.234-.097-.405-.268t-.269-.405q-.097-.235-.097-.508v-12.725h2.539v11.465h10.322zm18.158 0h-2.559v-8.34l-4.502 7.92q-.166.303-.464.459-.298.156-.639.156-.333 0-.621-.156t-.454-.459l-4.521-7.92v8.34h-2.539v-12.92q0-.439.259-.781.258-.342.678-.459.205-.049.41-.034.205.014.396.088.19.073.347.205.156.131.263.317l5.782 10.049 5.781-10.049q.224-.371.62-.527.395-.157.825-.049.41.117.674.459.264.342.264.781zm16.402-4.121q0 .752-.19 1.352-.191.601-.503 1.06-.313.459-.732.781-.42.323-.87.528-.449.205-.913.302-.464.098-.874.098h-9.795v-2.539h9.795q.733 0 1.138-.43.405-.429.405-1.152 0-.352-.107-.645-.108-.293-.308-.507-.2-.215-.488-.332-.288-.118-.64-.118h-5.84q-.615 0-1.328-.219-.713-.22-1.323-.708-.61-.489-1.016-1.28-.405-.791-.405-1.933 0-1.143.405-1.929.406-.786 1.016-1.279.61-.493 1.323-.713.713-.22 1.328-.22h8.643v2.539h-8.643q-.722 0-1.127.44-.406.439-.406 1.162 0 .732.406 1.157.405.425 1.127.425h5.86q.41.01.869.112.459.103.913.317.454.215.864.542.41.328.728.787.317.459.503 1.054.185.596.185 1.348zm16.091 3.037q0 .273-.103.508-.102.234-.273.405-.171.171-.406.269-.234.097-.498.097-.234 0-.473-.088-.239-.087-.425-.283l-9.277-9.687v9.863h-2.539v-12.92q0-.391.219-.708.22-.317.562-.474.361-.146.742-.073t.654.357l9.278 9.677v-9.863h2.539zm14.461-4.639h-8.017v-2.558h8.017zm1.143 5.723h-9.16q-.528 0-1.153-.186-.625-.185-1.157-.61t-.889-1.103q-.356-.679-.356-1.665v-9.161q0-.263.098-.498.097-.234.268-.41.171-.176.406-.273.234-.098.507-.098h11.436v2.539h-10.176v7.901q0 .498.264.761.263.264.771.264h9.141zm15.105-11.465h-5.595v11.465h-2.54v-11.465h-5.605v-2.539h13.74z" fill="#7000ff"></path></svg>